<?xml version="1.0" encoding="utf-8"?>
<!-- Generator: Adobe Illustrator 21.1.0, SVG Export Plug-In . SVG Version: 6.00 Build 0)  -->
<svg version="1.1" id="Layer_1" xmlns="http://www.w3.org/2000/svg" xmlns:xlink="http://www.w3.org/1999/xlink" x="0px" y="0px"
	 viewBox="0 0 1366 1366" style="enable-background:new 0 0 1366 1366;" xml:space="preserve">
<style type="text/css">
	.st0{fill:#F37565;stroke:#F37565;stroke-width:8;stroke-miterlimit:10;}
</style>
<g>
	
		<image style="overflow:visible;" width="239" height="353" xlink:href="Web Assets/pinkVVV.png"  transform="matrix(1 0 0 1 651 363)">
	</image>
	<line class="st0" x1="659.2" y1="437.2" x2="225" y2="3"/>
	<line class="st0" x1="660.4" y1="461.3" x2="202.1" y2="2.9"/>
	<line class="st0" x1="661.8" y1="485.8" x2="179.5" y2="3.5"/>
	<line class="st0" x1="656.2" y1="503.2" x2="156" y2="3"/>
	<line class="st0" x1="660.9" y1="530.9" x2="133" y2="3"/>
	<line class="st0" x1="653.4" y1="546.4" x2="109" y2="2"/>
	<line class="st0" x1="664.5" y1="579.5" x2="87" y2="2"/>
	<line class="st0" x1="653.7" y1="592.7" x2="63.5" y2="2.5"/>
	<line class="st0" x1="659" y1="621" x2="41" y2="3"/>
	<line class="st0" x1="674.4" y1="658.7" x2="18.8" y2="3.2"/>
	<line class="st0" x1="664.5" y1="694.5" x2="-27" y2="3"/>
	<line class="st0" x1="663.8" y1="670.8" x2="-4" y2="3"/>
</g>
<g>
	
		<image style="overflow:visible;" width="239" height="353" xlink:href="Web Assets/pinkVVV.png"  transform="matrix(-0.9998 1.763639e-02 -1.763639e-02 -0.9998 715.1885 1092.9451)">
	</image>
	<line class="st0" x1="705.7" y1="1018.9" x2="1147.5" y2="1445.4"/>
	<line class="st0" x1="704" y1="994.9" x2="1170.4" y2="1445.1"/>
	<line class="st0" x1="702.2" y1="970.4" x2="1193" y2="1444.1"/>
	<line class="st0" x1="707.5" y1="952.9" x2="1216.5" y2="1444.2"/>
	<line class="st0" x1="702.4" y1="925.3" x2="1239.5" y2="1443.8"/>
	<line class="st0" x1="709.5" y1="909.6" x2="1263.5" y2="1444.3"/>
	<line class="st0" x1="697.9" y1="876.7" x2="1285.5" y2="1443.9"/>
	<line class="st0" x1="708.5" y1="863.4" x2="1309" y2="1443"/>
	<line class="st0" x1="702.6" y1="835.1" x2="1331.4" y2="1442.1"/>
	<line class="st0" x1="686.6" y1="797.7" x2="1353.6" y2="1441.6"/>
	<line class="st0" x1="695.8" y1="761.7" x2="1399.4" y2="1440.9"/>
	<line class="st0" x1="697" y1="785.4" x2="1376.4" y2="1441.3"/>
</g>
<g>
	
		<image style="overflow:visible;" width="239" height="353" xlink:href="Web Assets/pinkVVV.png"  transform="matrix(-1.418068e-02 -0.9999 0.9999 -1.418068e-02 315.3892 762.9818)">
	</image>
	<line class="st0" x1="389.5" y1="753.7" x2="-38.5" y2="1194"/>
	<line class="st0" x1="413.5" y1="752.1" x2="-38.3" y2="1217"/>
	<line class="st0" x1="438" y1="750.5" x2="-37.4" y2="1239.5"/>
	<line class="st0" x1="455.5" y1="755.8" x2="-37.6" y2="1263"/>
	<line class="st0" x1="483.1" y1="750.7" x2="-37.2" y2="1286"/>
	<line class="st0" x1="498.8" y1="758" x2="-37.9" y2="1310"/>
	<line class="st0" x1="531.7" y1="746.4" x2="-37.6" y2="1332"/>
	<line class="st0" x1="545" y1="757.1" x2="-36.7" y2="1355.5"/>
	<line class="st0" x1="573.3" y1="751.3" x2="-35.9" y2="1378"/>
	<line class="st0" x1="610.8" y1="735.4" x2="-35.4" y2="1400.2"/>
	<line class="st0" x1="646.7" y1="744.8" x2="-35" y2="1446"/>
	<line class="st0" x1="623" y1="745.8" x2="-35.3" y2="1423"/>
</g>
</svg>
